HIERARCHY
ROOT Hips
{
    OFFSET 0.000000 0.000000 0.000000
    CHANNELS 6 Xposition Yposition Zposition Zrotation Xrotation Yrotation
        JOINT Chest
        {
            OFFSET -0.000000 30.832245 -0.000000
            CHANNELS 3 Zrotation Xrotation Yrotation
            JOINT Neck
            {
                OFFSET -0.000000 22.747684 0.000000
                CHANNELS 3 Zrotation Xrotation Yrotation
                JOINT Head
                {
                    OFFSET -0.000000 10.755556 0.000000
                    CHANNELS 3 Zrotation Xrotation Yrotation
                    End Site
                    {
                        OFFSET -0.000000 16.622223 0.000000
                    }
                }
            }
            JOINT LeftCollar
            {
                OFFSET -0.000000 22.747684 0.000000
                CHANNELS 3 Zrotation Xrotation Yrotation
                JOINT LeftShoulder
                {
                    OFFSET 19.555553 -0.000000 0.000000
                    CHANNELS 3 Zrotation Xrotation Yrotation
                    JOINT LeftElbow
                    {
                        OFFSET 22.529686 0.000000 0.000000
                        CHANNELS 3 Zrotation Xrotation Yrotation
                        JOINT LeftWrist
                        {
                            OFFSET 26.249420 0.000000 0.000000
                            CHANNELS 3 Zrotation Xrotation Yrotation
                            End Site
                            {
                                OFFSET 0.000000 -14.666668 0.000000
                            }
                        }
                    }
                }
            }
            JOINT RightCollar
            {
                OFFSET -0.000000 22.747684 0.000000
                CHANNELS 3 Zrotation Xrotation Yrotation
                JOINT RightShoulder
                {
                    OFFSET -19.555553 0.000000 0.000000
                    CHANNELS 3 Zrotation Xrotation Yrotation
                    JOINT RightElbow
                    {
                        OFFSET -22.529686 0.000000 0.000000
                        CHANNELS 3 Zrotation Xrotation Yrotation
                        JOINT RightWrist
                        {
                            OFFSET -26.249420 0.000000 0.000000
                            CHANNELS 3 Zrotation Xrotation Yrotation
                            End Site
                            {
                                OFFSET -0.000000 -14.666668 0.000000
                            }
                        }
                    }
                }
            }
        }
    JOINT LeftHip
    {
        OFFSET 11.733333 0.000000 0.000000
        CHANNELS 3 Zrotation Xrotation Yrotation
        JOINT LeftKnee
        {
            OFFSET -0.000000 -34.781296 0.000000
            CHANNELS 3 Zrotation Xrotation Yrotation
            JOINT LeftAnkle
            {
                OFFSET -0.000000 -42.425819 0.000000
                CHANNELS 3 Zrotation Xrotation Yrotation
                End Site
                {
                    OFFSET -0.000000 -4.888888 16.622223
                }
            }
        }
    }
    JOINT RightHip
    {
        OFFSET -11.733333 0.000000 0.000000
        CHANNELS 3 Zrotation Xrotation Yrotation
        JOINT RightKnee
        {
            OFFSET -0.000000 -34.781296 0.000000
            CHANNELS 3 Zrotation Xrotation Yrotation
            JOINT RightAnkle
            {
                OFFSET -0.000000 -42.425819 0.000000
                CHANNELS 3 Zrotation Xrotation Yrotation
                End Site
                {
                    OFFSET -0.000000 -4.888888 16.622223
                }
            }
        }
    }
}
MOTION
Frames:    8
Frame Time:    0.010000
-59.814964    85.053703    -13.248610    1.427720    1.667501    81.396667    8.312344    23.056967    -6.550767    8.967126    7.741323    -11.137267    -6.125157    -15.672932    -11.364400    -5.707442    -0.029379    0.033171    -57.293400    26.461132    1.713677    41.918941    -25.939590    -63.168667    86.395439    -41.787170    51.271172    6.134787    0.319915    6.053598    64.006805    0.849869    -1.643967    -12.869862    -2.583627    23.089178    -103.791603    27.180094    -47.640144    13.439192    -10.290409    -1.646371    -5.932788    27.620941    -2.036262    -14.154944    -7.694056    20.861757    -12.489500    -13.903510    -8.030157    8.636688    31.974535    -18.054094    3.679274    -9.285648    -8.467931    
-59.664810    85.045685    -13.225802    1.329803    1.804041    80.028748    8.245959    23.245237    -6.248796    8.895005    8.635944    -10.935541    -6.165419    -16.580364    -11.151127    -5.541412    -0.028818    0.353948    -57.608749    26.140564    2.242678    40.787693    -25.308218    -63.417442    83.627556    -42.509876    47.996613    6.838626    0.367483    6.224891    64.142273    -0.031072    -4.702419    -11.755541    -2.170133    20.964476    -102.529732    28.237400    -48.439663    13.228862    -10.106473    -2.381976    -6.468227    27.831455    -0.540788    -13.649025    -7.520343    21.097803    -12.632752    -14.377633    -8.469308    8.314995    32.210274    -16.756071    3.598877    -9.215388    -8.162953    
-59.533031    85.029892    -13.230355    1.217829    1.919449    78.626991    8.263865    23.303175    -5.945753    8.884966    9.528790    -10.723387    -6.444186    -17.468300    -10.959703    -5.434360    -0.062174    0.619497    -57.883690    25.840618    2.789781    39.785957    -24.764406    -63.576981    80.985054    -42.833473    44.825611    7.498430    0.412037    6.350692    64.055092    -0.783978    -7.605005    -10.752180    -1.767235    18.618301    -101.551659    28.890930    -48.362495    13.041161    -9.983021    -3.099564    -6.980769    28.072746    0.812476    -12.918706    -7.314931    21.299675    -12.765824    -14.896585    -8.857076    8.033743    32.440109    -15.478094    3.557881    -9.138407    -7.909885    
-59.415607    85.008194    -13.260202    1.092715    2.010157    77.224136    8.361038    23.259031    -5.710648    8.917154    10.396307    -10.484556    -6.918413    -18.335478    -10.772937    -5.378299    -0.041669    0.853583    -58.108910    25.519073    3.293440    38.845715    -24.201792    -63.611412    78.672050    -42.791039    41.928406    8.097401    0.459254    6.437932    63.790413    -1.404804    -10.334118    -9.849052    -1.434333    16.092442    -101.016800    29.149067    -47.385246    12.884459    -9.926000    -3.753079    -7.446815    28.362537    1.969389    -12.010161    -7.094579    21.456110    -12.883185    -15.436409    -9.172446    7.811790    32.643566    -14.281650    3.529105    -9.044559    -7.691028    
-59.308506    84.982147    -13.312316    0.954768    2.077041    75.845734    8.520543    23.144268    -5.589483    8.973293    11.211819    -10.204123    -7.534165    -19.177477    -10.574820    -5.361738    -0.069371    1.072342    -58.333691    25.251673    3.838068    38.088226    -23.760084    -63.560188    76.820595    -42.448391    39.465252    8.630406    0.485135    6.485023    63.386944    -1.873855    -12.889970    -9.057042    -1.145745    13.527901    -100.916122    29.066219    -45.678406    12.763090    -9.934052    -4.305831    -7.849607    28.708954    2.896258    -11.000051    -6.883827    21.561586    -12.980871    -15.977217    -9.400094    7.658504    32.805187    -13.220013    3.464695    -8.921585    -7.472144    
-59.208237    84.953224    -13.382858    0.803216    2.124014    74.510323    8.718253    22.989248    -5.604746    9.044570    11.948982    -9.873526    -8.237533    -19.988430    -10.350666    -5.374444    -0.049846    1.281973    -58.519897    24.972549    4.334969    37.397892    -23.288036    -63.389172    75.532295    -41.878155    37.465424    9.093346    0.509600    6.485140    62.891907    -2.208482    -15.236442    -8.400611    -0.902078    10.967582    -101.233887    28.664516    -43.400604    12.678850    -9.999831    -4.735212    -8.180497    29.108047    3.582972    -9.975030    -6.708144    21.614410    -13.057346    -16.503550    -9.531915    7.577778    32.912231    -12.329180    3.299454    -8.757117    -7.216538    
-59.111698    84.923187    -13.467590    0.637877    2.156137    73.229507    8.926588    22.821289    -5.758800    9.134418    12.584559    -9.488450    -8.984423    -20.759560    -10.092070    -5.402808    -0.050529    1.479186    -58.682407    24.723112    4.820724    36.845360    -22.891338    -63.153484    74.822975    -41.153400    35.953197    9.487184    0.534268    6.430478    62.344318    -2.422584    -17.351711    -7.881916    -0.695860    8.549729    -101.902138    28.033495    -40.777962    12.631739    -10.109404    -5.032104    -8.436852    29.543839    4.036145    -9.012503    -6.588100    21.618065    -13.113659    -17.002325    -9.565703    7.570527    32.953369    -11.620815    2.979304    -8.544873    -6.901111    
-59.015770    84.894302    -13.562218    0.461445    2.177808    72.008453    9.119342    22.663818    -6.038584    9.250431    13.102764    -9.050113    -9.737219    -21.480154    -9.792475    -5.435800    -0.079420    1.658031    -58.808041    24.496927    5.284458    36.371571    -22.504721    -62.854595    74.702324    -40.330742    34.895336    9.815002    0.542746    6.320818    61.778130    -2.533803    -19.239134    -7.487410    -0.527781    6.400687    -102.844002    27.267195    -38.021046    12.620111    -10.241232    -5.199505    -8.620082    29.990574    4.273881    -8.168029    -6.536736    21.580496    -13.152255    -17.460447    -9.504933    7.632286    32.920094    -11.084147    2.486652    -8.286967    -6.516154    
